<?xml version="1.0" encoding="UTF-8"?>
<!DOCTYPE svg  PUBLIC '-//W3C//DTD SVG 1.1//EN'  'http://www.w3.org/Graphics/SVG/1.1/DTD/svg11.dtd'>
<svg width="279.4mm" height="215.9mm" fill-rule="evenodd" stroke-linejoin="round" stroke-width="28.222" preserveAspectRatio="xMidYMid" version="1.2" viewBox="0 0 27940 21590" xml:space="preserve" xmlns="http://www.w3.org/2000/svg" xmlns:ooo="http://xml.openoffice.org/svg/export">
 <defs class="ClipPathGroup">
  <clipPath id="a">
   <rect width="27940" height="21590"/>
  </clipPath>
  
 </defs>
 <defs class="TextShapeIndex">
  
 </defs>
 <defs class="EmbeddedBulletChars">
  
  
  
  
  
  
  
  
  
  
 </defs>
 
  <g class="Master_Slide">
   
   
  </g>
 
 <g class="SlideGroup">
  
   
    <g class="Slide" clip-path="url(#a)">
     <g class="Page">
      <g class="com.sun.star.drawing.CustomShape">
       <g>
        <rect class="BoundingBox" width="27941" height="21591" fill="none"/>
        <path d="m13970 21590h-13970v-21590h27940v21590h-13970z" fill="#be7c23"/>
       </g>
      </g>
      <g class="com.sun.star.drawing.CustomShape">
       <g>
        <rect class="BoundingBox" x="999" y="999" width="13655" height="13655" fill="none"/>
        <path d="m14653 7826c0 1199-315 2376-915 3414-599 1038-1460 1899-2498 2498-1038 600-2215 915-3413 915-1199 0-2376-315-3414-915-1038-599-1899-1460-2498-2498-600-1038-915-2215-915-3413 0-1199 315-2376 915-3414 599-1038 1460-1899 2498-2498 1038-600 2215-915 3413-915 1199 0 2376 315 3414 915 1038 599 1899 1460 2498 2498 600 1038 915 2215 915 3413z" fill="#e8a202"/>
       </g>
      </g>
      <g class="com.sun.star.drawing.CustomShape">
       <g>
        <rect class="BoundingBox" x="18779" y="10524" width="9306" height="10480" fill="none"/>
        <path d="m28083 15764c0 919-215 1823-623 2619-409 797-996 1458-1703 1918s-1509 702-2326 702-1619-242-2326-702-1294-1121-1703-1918c-408-796-623-1700-623-2619 0-920 215-1824 623-2620 409-797 996-1458 1703-1918s1509-702 2326-702 1619 242 2326 702 1294 1121 1703 1918c408 796 623 1700 623 2619v1z" fill="#e8a202"/>
       </g>
      </g>
      <g class="com.sun.star.drawing.CustomShape">
       <g>
        <rect class="BoundingBox" x="16875" y="1951" width="6352" height="6671" fill="none"/>
        <path d="m23226 5287c0 585-147 1160-425 1667-279 507-680 928-1163 1220-482 293-1030 447-1587 447-558 0-1106-154-1588-447-483-292-884-713-1163-1220-278-507-425-1082-425-1667 0-586 147-1161 425-1668 279-507 680-928 1163-1220 482-293 1030-447 1587-447 558 0 1106 154 1588 447 483 292 884 713 1163 1220 278 507 425 1082 425 1667v1z" fill="#e8a202"/>
       </g>
      </g>
     </g>
    </g>
   
  
 </g>
</svg>
